<svg width="48" height="48" viewBox="0 0 48 48" fill="none" xmlns="http://www.w3.org/2000/svg">
<mask id="mask0_209_142" style="mask-type:alpha" maskUnits="userSpaceOnUse" x="0" y="0" width="48" height="48">
<rect width="48" height="48" fill="#D9D9D9"/>
</mask>
<g mask="url(#mask0_209_142)">
<path d="M32.6 21.8V15.4H26.2V12.4H32.6V6H35.6V12.4H42V15.4H35.6V21.8H32.6ZM39.75 42C35.8833 42 31.9417 41.0667 27.925 39.2C23.9083 37.3333 20.1833 34.6833 16.75 31.25C13.3167 27.8167 10.6667 24.0917 8.8 20.075C6.93333 16.0583 6 12.1167 6 8.25C6 7.60713 6.21428 7.07142 6.64285 6.64285C7.07142 6.21428 7.60713 6 8.25 6H15.25C15.7167 6 16.1167 6.16667 16.45 6.5C16.7833 6.83333 17.0167 7.25 17.15 7.75L18.4964 14.0321C18.5655 14.5107 18.5583 14.9417 18.475 15.325C18.3917 15.7083 18.2128 16.0371 17.9385 16.3113L12.95 21.35C13.8167 22.8167 14.7333 24.1833 15.7 25.45C16.6667 26.7167 17.7333 27.9167 18.9 29.05C20.1333 30.3167 21.4333 31.475 22.8 32.525C24.1667 33.575 25.6 34.5 27.1 35.3L31.85 30.4C32.1833 30.0333 32.5692 29.7833 33.0076 29.65C33.4459 29.5167 33.8767 29.4833 34.3 29.55L40.25 30.85C40.75 30.9833 41.1667 31.2507 41.5 31.6522C41.8333 32.0537 42 32.5029 42 33V39.75C42 40.3929 41.7857 40.9286 41.3572 41.3572C40.9286 41.7857 40.3929 42 39.75 42ZM11.45 18.6L15.5 14.5L14.35 9H9C9.06667 10.4 9.29167 11.875 9.675 13.425C10.0583 14.975 10.65 16.7 11.45 18.6ZM29.9 36.75C31.2667 37.3833 32.75 37.9 34.35 38.3C35.95 38.7 37.5 38.9333 39 39V33.65L33.85 32.6L29.9 36.75Z" fill="#1C1B1F"/>
</g>
</svg>
