<svg width="26" height="31" viewBox="0 0 26 31" fill="none" xmlns="http://www.w3.org/2000/svg">
<path d="M14.3506 30.0832L13.986 25.9513H12.8922C9.42481 25.9513 6.47168 24.7319 4.03287 22.2931C1.59429 19.8545 0.375 16.9014 0.375 13.4337C0.375 9.96631 1.59842 7.01319 4.04526 4.57437C6.49186 2.13579 9.45714 0.916504 12.9411 0.916504C14.6668 0.916504 16.2689 1.23041 17.7474 1.85822C19.2259 2.48628 20.5181 3.36128 21.624 4.48322C22.7299 5.60541 23.5969 6.92204 24.2249 8.43312C24.8528 9.94395 25.1667 11.5865 25.1667 13.3608C25.1667 15.0379 24.9094 16.6907 24.3948 18.3192C23.8805 19.9476 23.1514 21.487 22.2073 22.9373C21.2636 24.3877 20.1253 25.7204 18.7927 26.9357C17.4597 28.151 15.979 29.2002 14.3506 30.0832ZM16.5381 25.6837C18.4422 24.0796 19.9512 22.194 21.0651 20.0269C22.179 17.8595 22.736 15.6375 22.736 13.3608C22.736 10.4685 21.8023 8.07644 19.9349 6.18473C18.0675 4.29303 15.7362 3.34718 12.9411 3.34718C10.1134 3.34718 7.71722 4.32949 5.7526 6.29411C3.78799 8.25873 2.80568 10.6386 2.80568 13.4337C2.80568 16.2289 3.78799 18.6089 5.7526 20.5737C7.71722 22.5384 10.0971 23.5207 12.8922 23.5207H16.5381V25.6837ZM12.9287 21.7342C13.3259 21.7342 13.6621 21.5965 13.9375 21.3211C14.2129 21.0455 14.3506 20.7092 14.3506 20.3123C14.3506 19.9154 14.2129 19.5792 13.9375 19.3035C13.6621 19.0282 13.3259 18.8905 12.9287 18.8905C12.5318 18.8905 12.1956 19.0282 11.9203 19.3035C11.6446 19.5792 11.5068 19.9154 11.5068 20.3123C11.5068 20.7092 11.6446 21.0455 11.9203 21.3211C12.1956 21.5965 12.5318 21.7342 12.9287 21.7342ZM11.9203 16.8853H13.8646C13.8646 16.237 13.9578 15.7306 14.1442 15.366C14.3304 15.0015 14.7719 14.4709 15.4688 13.7743C16.0521 13.1909 16.4814 12.6319 16.7568 12.0972C17.0324 11.5625 17.1703 10.9871 17.1703 10.3712C17.1703 9.22888 16.7833 8.31949 16.0094 7.64307C15.2358 6.96664 14.2453 6.62843 13.0381 6.62843C12.0012 6.62843 11.0939 6.90588 10.3161 7.46078C9.53832 8.01567 8.97115 8.74277 8.61458 9.64208L10.4131 10.3712C10.6318 9.81222 10.9559 9.36463 11.3854 9.02848C11.8149 8.69234 12.3415 8.52426 12.9652 8.52426C13.67 8.52426 14.2149 8.70243 14.5999 9.05874C14.9847 9.41531 15.1771 9.86095 15.1771 10.3957C15.1771 10.8412 15.0474 11.2766 14.7881 11.702C14.529 12.1273 14.1158 12.6317 13.5485 13.215C12.8276 13.9118 12.376 14.4689 12.1937 14.8862C12.0114 15.3033 11.9203 15.9697 11.9203 16.8853Z" fill="#1C1B1F"/>
</svg>
