<svg width="35" height="35" viewBox="0 0 35 35" fill="none" xmlns="http://www.w3.org/2000/svg">
<mask id="mask0_961_304" style="mask-type:alpha" maskUnits="userSpaceOnUse" x="0" y="0" width="35" height="35">
<rect width="35" height="35" fill="#D9D9D9"/>
</mask>
<g mask="url(#mask0_961_304)">
<path d="M26.4932 18.7153V16.285H32.0833V18.7153H26.4932ZM28.2917 29.1668L23.7953 25.8127L25.2536 23.8683L29.75 27.2225L28.2917 29.1668ZM25.3265 11.1079L23.8682 9.16324L28.2917 5.8335L29.75 7.77782L25.3265 11.1079ZM7.53483 27.7085V21.8752H5.34733C4.67893 21.8752 4.10666 21.6372 3.63051 21.1613C3.15461 20.6852 2.91666 20.1129 2.91666 19.4445V15.5558C2.91666 14.8874 3.15461 14.3152 3.63051 13.839C4.10666 13.3631 4.67893 13.1252 5.34733 13.1252H11.6667L18.9583 8.75016V26.2502L11.6667 21.8752H9.96515V27.7085H7.53483ZM16.5276 21.9481V13.0522L12.3229 15.5558H5.34733V19.4445H12.3229L16.5276 21.9481ZM20.4167 22.3856V12.6147C21.0729 13.1981 21.6016 13.909 22.0026 14.7476C22.4036 15.5861 22.6042 16.5036 22.6042 17.5002C22.6042 18.4967 22.4036 19.4142 22.0026 20.2528C21.6016 21.0913 21.0729 21.8022 20.4167 22.3856Z" fill="#1C1B1F"/>
</g>
</svg>
