<svg width="21" height="22" viewBox="0 0 21 22" fill="none" xmlns="http://www.w3.org/2000/svg">
<path d="M18 13V6.5L13 3L8 6.5V8H6V5.5L13 0.5L20 5.5V13H18ZM13.5 7H14.5V6H13.5V7ZM11.5 7H12.5V6H11.5V7ZM13.5 9H14.5V8H13.5V9ZM11.5 9H12.5V8H11.5V9ZM6 17.5L12.95 19.4L18.9 17.55C18.8167 17.4 18.6958 17.2708 18.5375 17.1625C18.3792 17.0542 18.2 17 18 17H12.95C12.5 17 12.1417 16.9833 11.875 16.95C11.6083 16.9167 11.3333 16.85 11.05 16.75L8.725 15.975L9.275 14.025L11.3 14.7C11.5833 14.7833 11.9167 14.85 12.3 14.9C12.6833 14.95 13.25 14.9833 14 15C14 14.8167 13.9458 14.6417 13.8375 14.475C13.7292 14.3083 13.6 14.2 13.45 14.15L7.6 12H6V17.5ZM0 21V10H7.6C7.71667 10 7.83333 10.0125 7.95 10.0375C8.06667 10.0625 8.175 10.0917 8.275 10.125L14.15 12.3C14.7 12.5 15.1458 12.85 15.4875 13.35C15.8292 13.85 16 14.4 16 15H18C18.8333 15 19.5417 15.275 20.125 15.825C20.7083 16.375 21 17.1 21 18V19L13 21.5L6 19.55V21H0ZM2 19H4V12H2V19Z" fill="#1C1B1F"/>
</svg>
