<svg width="48" height="48" viewBox="0 0 48 48" fill="none" xmlns="http://www.w3.org/2000/svg">
<mask id="mask0_209_226" style="mask-type:alpha" maskUnits="userSpaceOnUse" x="0" y="0" width="48" height="48">
<rect width="48" height="48" fill="#D9D9D9"/>
</mask>
<g mask="url(#mask0_209_226)">
<path d="M12 42V6H26.4C29.6667 6 32.4167 7.11667 34.65 9.35C36.8833 11.5833 38 14.3333 38 17.6C38 20.8667 36.8833 23.6167 34.65 25.85C32.4167 28.0833 29.6667 29.2 26.4 29.2H18V42H12ZM18 23.2H26.4C28 23.2 29.3333 22.6667 30.4 21.6C31.4667 20.5333 32 19.2 32 17.6C32 16 31.4667 14.6667 30.4 13.6C29.3333 12.5333 28 12 26.4 12H18V23.2Z" fill="#1C1B1F"/>
</g>
</svg>
