<svg width="48" height="48" viewBox="0 0 48 48" fill="none" xmlns="http://www.w3.org/2000/svg">
<mask id="mask0_209_232" style="mask-type:alpha" maskUnits="userSpaceOnUse" x="0" y="0" width="48" height="48">
<rect width="48" height="48" fill="#D9D9D9"/>
</mask>
<g mask="url(#mask0_209_232)">
<path d="M8 42V9C8 8.2 8.3 7.5 8.9 6.9C9.5 6.3 10.2 6 11 6H24.45C25.25 6 25.95 6.3 26.55 6.9C27.15 7.5 27.45 8.2 27.45 9V23.4H30.7C31.3875 23.4 31.976 23.6448 32.4656 24.1344C32.9552 24.624 33.2 25.2125 33.2 25.9V36.85C33.2 37.5725 33.4583 38.1781 33.975 38.6669C34.4917 39.1556 35.1167 39.4 35.85 39.4C36.5833 39.4 37.2083 39.1556 37.725 38.6669C38.2417 38.1781 38.5 37.5725 38.5 36.85V22.1C38.1333 22.3 37.75 22.45 37.35 22.55C36.95 22.65 36.55 22.7 36.15 22.7C34.834 22.7 33.7217 22.2457 32.813 21.337C31.9043 20.4283 31.45 19.316 31.45 18C31.45 16.9462 31.75 15.9994 32.35 15.1596C32.95 14.3199 33.75 13.7667 34.75 13.5L30 8.75L31.8 7L39.45 14.65C39.9167 15.1167 40.2917 15.625 40.575 16.175C40.8583 16.725 41 17.3333 41 18V36.85C41 38.292 40.503 39.5108 39.5091 40.5065C38.5152 41.5022 37.2986 42 35.8591 42C34.4197 42 33.2 41.5022 32.2 40.5065C31.2 39.5108 30.7 38.292 30.7 36.85V25.9H27.45V42H8ZM11 20.4H24.45V9H11V20.4ZM36.15 20.2C36.75 20.2 37.2667 19.9833 37.7 19.55C38.1333 19.1167 38.35 18.6 38.35 18C38.35 17.4 38.1333 16.8833 37.7 16.45C37.2667 16.0167 36.75 15.8 36.15 15.8C35.55 15.8 35.0333 16.0167 34.6 16.45C34.1667 16.8833 33.95 17.4 33.95 18C33.95 18.6 34.1667 19.1167 34.6 19.55C35.0333 19.9833 35.55 20.2 36.15 20.2ZM11 39H24.45V23.4H11V39Z" fill="#1C1B1F"/>
</g>
</svg>
