<svg width="48" height="48" viewBox="0 0 48 48" fill="none" xmlns="http://www.w3.org/2000/svg">
<mask id="mask0_209_208" style="mask-type:alpha" maskUnits="userSpaceOnUse" x="0" y="0" width="48" height="48">
<rect width="48" height="48" fill="#D9D9D9"/>
</mask>
<g mask="url(#mask0_209_208)">
<path d="M22.5 36H25.5V34H28.5C28.925 34 29.2812 33.8563 29.5688 33.5688C29.8563 33.2812 30 32.925 30 32.5V26C30 25.575 29.8563 25.2188 29.5688 24.9312C29.2812 24.6437 28.925 24.5 28.5 24.5H21V21H30V18H25.5V16H22.5V18H19.5C19.075 18 18.7188 18.1438 18.4313 18.4313C18.1438 18.7188 18 19.075 18 19.5V26C18 26.425 18.1438 26.7812 18.4313 27.0688C18.7188 27.3563 19.075 27.5 19.5 27.5H27V31H18V34H22.5V36ZM11 44C10.2 44 9.5 43.7 8.9 43.1C8.3 42.5 8 41.8 8 41V7C8 6.2 8.3 5.5 8.9 4.9C9.5 4.3 10.2 4 11 4H28.05L40 15.95V41C40 41.8 39.7 42.5 39.1 43.1C38.5 43.7 37.8 44 37 44H11ZM11 41H37V17.3L26.7 7H11V41Z" fill="#1C1B1F"/>
</g>
</svg>
