<svg width="22" height="22" viewBox="0 0 22 22" fill="none" xmlns="http://www.w3.org/2000/svg">
<path d="M11 22C9.13333 22 7.41667 21.575 5.85 20.725C4.28333 19.875 3 18.7417 2 17.325V20H0V14H6V16H3.525C4.325 17.2 5.37917 18.1667 6.6875 18.9C7.99583 19.6333 9.43333 20 11 20C12.25 20 13.4208 19.7625 14.5125 19.2875C15.6042 18.8125 16.5542 18.1708 17.3625 17.3625C18.1708 16.5542 18.8125 15.6042 19.2875 14.5125C19.7625 13.4208 20 12.25 20 11H22C22 12.5167 21.7125 13.9417 21.1375 15.275C20.5625 16.6083 19.775 17.775 18.775 18.775C17.775 19.775 16.6083 20.5625 15.275 21.1375C13.9417 21.7125 12.5167 22 11 22ZM10.1 18V16.7C9.31667 16.5167 8.67917 16.1792 8.1875 15.6875C7.69583 15.1958 7.33333 14.55 7.1 13.75L8.75 13.1C8.95 13.7833 9.2625 14.2958 9.6875 14.6375C10.1125 14.9792 10.6 15.15 11.15 15.15C11.7 15.15 12.1708 15.0208 12.5625 14.7625C12.9542 14.5042 13.15 14.1 13.15 13.55C13.15 13.0667 12.9458 12.675 12.5375 12.375C12.1292 12.075 11.4 11.7333 10.35 11.35C9.36667 11 8.64583 10.5833 8.1875 10.1C7.72917 9.61667 7.5 8.98333 7.5 8.2C7.5 7.51667 7.7375 6.89583 8.2125 6.3375C8.6875 5.77917 9.33333 5.41667 10.15 5.25V4H11.9V5.25C12.5 5.3 13.0458 5.54167 13.5375 5.975C14.0292 6.40833 14.3667 6.91667 14.55 7.5L12.95 8.15C12.8167 7.76667 12.6 7.44583 12.3 7.1875C12 6.92917 11.5833 6.8 11.05 6.8C10.4667 6.8 10.0208 6.925 9.7125 7.175C9.40417 7.425 9.25 7.76667 9.25 8.2C9.25 8.63333 9.44167 8.975 9.825 9.225C10.2083 9.475 10.9 9.76667 11.9 10.1C13.1 10.5333 13.9 11.0417 14.3 11.625C14.7 12.2083 14.9 12.85 14.9 13.55C14.9 14.0333 14.8167 14.4583 14.65 14.825C14.4833 15.1917 14.2625 15.5042 13.9875 15.7625C13.7125 16.0208 13.3917 16.2292 13.025 16.3875C12.6583 16.5458 12.2667 16.6667 11.85 16.75V18H10.1ZM0 11C0 9.48333 0.2875 8.05833 0.8625 6.725C1.4375 5.39167 2.225 4.225 3.225 3.225C4.225 2.225 5.39167 1.4375 6.725 0.8625C8.05833 0.2875 9.48333 0 11 0C12.8667 0 14.5833 0.425 16.15 1.275C17.7167 2.125 19 3.25833 20 4.675V2H22V8H16V6H18.475C17.675 4.8 16.6208 3.83333 15.3125 3.1C14.0042 2.36667 12.5667 2 11 2C9.75 2 8.57917 2.2375 7.4875 2.7125C6.39583 3.1875 5.44583 3.82917 4.6375 4.6375C3.82917 5.44583 3.1875 6.39583 2.7125 7.4875C2.2375 8.57917 2 9.75 2 11H0Z" fill="#1C1B1F"/>
</svg>
