<svg width="49" height="49" viewBox="0 0 49 49" fill="none" xmlns="http://www.w3.org/2000/svg">
<mask id="mask0_757_124" style="mask-type:alpha" maskUnits="userSpaceOnUse" x="0" y="0" width="49" height="49">
<rect x="0.184814" y="0.216473" width="48" height="48" fill="#D9D9D9"/>
</mask>
<g mask="url(#mask0_757_124)">
<path d="M32.4848 25.4165L24.2848 17.4165C23.3075 16.4918 22.4798 15.467 21.8018 14.342C21.1238 13.217 20.7848 11.9918 20.7848 10.6665C20.7848 8.89981 21.3681 7.38314 22.5348 6.11647C23.7015 4.84981 25.1515 4.21647 26.8848 4.21647C28.0181 4.21647 29.0515 4.50814 29.9848 5.09147C30.9181 5.67481 31.7515 6.39981 32.4848 7.26647C33.2181 6.39981 34.0515 5.67481 34.9848 5.09147C35.9181 4.50814 36.9515 4.21647 38.0848 4.21647C39.8181 4.21647 41.2681 4.84981 42.4348 6.11647C43.6015 7.38314 44.1848 8.89981 44.1848 10.6665C44.1848 11.9885 43.8432 13.2106 43.1598 14.333C42.4765 15.4553 41.6515 16.4831 40.6848 17.4165L32.4848 25.4165ZM32.4848 21.2665L38.4848 15.3165C39.1555 14.6548 39.7731 13.9495 40.3378 13.2005C40.9025 12.4515 41.1848 11.6068 41.1848 10.6665C41.1848 9.73314 40.8931 8.92481 40.3098 8.24147C39.7265 7.55814 38.9848 7.21647 38.0848 7.21647C37.4181 7.21647 36.8015 7.39981 36.2348 7.76647C35.6681 8.13314 35.1681 8.58314 34.7348 9.11647L32.4848 11.8665L30.2348 9.11647C29.8015 8.58314 29.3015 8.13314 28.7348 7.76647C28.1681 7.39981 27.5515 7.21647 26.8848 7.21647C25.9848 7.21647 25.2431 7.55814 24.6598 8.24147C24.0765 8.92481 23.7848 9.73314 23.7848 10.6665C23.7848 11.6068 24.0671 12.4515 24.6318 13.2005C25.1965 13.9495 25.8141 14.6548 26.4848 15.3165L32.4848 21.2665ZM12.9348 38.2165L28.2848 42.7165L40.6848 38.8165C40.6848 38.1498 40.4265 37.5915 39.9098 37.1415C39.3932 36.6915 38.7848 36.4665 38.0848 36.4665H27.6348C27.1015 36.4665 26.5765 36.4248 26.0598 36.3415C25.5431 36.2581 25.0348 36.1331 24.5348 35.9665L19.7348 34.5165L20.6848 31.4665L25.3848 33.0665C25.7515 33.1998 26.1265 33.2998 26.5098 33.3665C26.8931 33.4331 27.2681 33.4665 27.6348 33.4665H30.4348C30.4348 32.7665 30.2015 32.1581 29.7348 31.6415C29.2681 31.1248 28.7015 30.7331 28.0348 30.4665L17.1348 26.3165H12.9348V38.2165ZM2.18481 44.2165V23.3165H17.0848C17.2625 23.3165 17.4403 23.3331 17.6183 23.3665C17.796 23.3998 17.9681 23.4498 18.1348 23.5165L29.0348 27.6165C30.3015 28.0831 31.3765 28.8331 32.2598 29.8665C33.1431 30.8998 33.5848 32.0998 33.5848 33.4665H38.0848C39.7791 33.4665 41.2195 34.0831 42.4058 35.3165C43.5918 36.5498 44.1848 38.0165 44.1848 39.7165V41.0165L28.5348 45.8165L12.9348 41.3665V44.2165H2.18481ZM5.18481 41.2165H9.88481V26.3165H5.18481V41.2165Z" fill="#1C1B1F"/>
</g>
</svg>
