<svg width="48" height="48" viewBox="0 0 48 48" fill="none" xmlns="http://www.w3.org/2000/svg">
<mask id="mask0_209_202" style="mask-type:alpha" maskUnits="userSpaceOnUse" x="0" y="0" width="48" height="48">
<rect width="48" height="48" fill="#D9D9D9"/>
</mask>
<g mask="url(#mask0_209_202)">
<path d="M22.5 35.5H23.75L31.05 24.5H25.5V16.5H24.25L16.95 27.5H22.5V35.5ZM24 44C19.4333 44 15.625 42.4333 12.575 39.3C9.525 36.1667 8 32.2667 8 27.6C8 24.2667 9.325 20.6417 11.975 16.725C14.625 12.8083 18.6333 8.56667 24 4C29.3667 8.56667 33.375 12.8083 36.025 16.725C38.675 20.6417 40 24.2667 40 27.6C40 32.2667 38.475 36.1667 35.425 39.3C32.375 42.4333 28.5667 44 24 44ZM24 41C27.7333 41 30.8333 39.725 33.3 37.175C35.7667 34.625 37 31.4333 37 27.6C37 24.9667 35.8917 21.975 33.675 18.625C31.4583 15.275 28.2333 11.7333 24 8C19.7667 11.7333 16.5417 15.275 14.325 18.625C12.1083 21.975 11 24.9667 11 27.6C11 31.4333 12.2333 34.625 14.7 37.175C17.1667 39.725 20.2667 41 24 41Z" fill="#1C1B1F"/>
</g>
</svg>
